#!OML:ASF E:\motion texture\Top Level 1\Subject 1\Session 1\male.ASF
:FULLY-SPECIFIED
:DEGREES
146
root 9.47127 17.97 4.03997 115.237 -83.8655 -109.679
lowerback 0.535852 -1.50206 4.32201
upperback -1.5598 -2.03261 6.16171
thorax -1.83119 -1.11327 3.98693
lowerneck -16.3854 -2.0641 -3.19108
upperneck 12.954 -2.89104 4.94145
head 6.76145 -1.12864 1.81316
rclavicle -3.47376e-014 1.27222e-014
rhumerus -28.8053 -12.015 -73.2324
rradius 20.3739
rwrist 15.7801
rhand -9.71627 -27.1384
rfingers 7.12502
rthumb 16.2569 -56.4769
lclavicle -3.47376e-014 1.27222e-014
lhumerus -20.9048 12.3647 79.8893
lradius 20.4438
lwrist -33.3717
lhand -8.079 26.5368
lfingers 7.12502
lthumb 17.8328 55.7392
rfemur -15.7644 2.53216 28.8911
rtibia 20.73
rfoot -6.73361 -10.353
rtoes 18.6016
lfemur -17.9662 1.64701 -9.62215
ltibia 61.5647
lfoot 3.47999 0.36288
ltoes -14.1964
147
root 9.32857 17.9853 4.00372 116.691 -83.6397 -111.245
lowerback 0.478161 -1.35926 4.42764
upperback -1.55452 -1.84475 6.09675
thorax -1.80559 -1.02036 3.85365
lowerneck -16.289 -2.08832 -3.16599
upperneck 13.052 -2.91752 4.82692
head 6.77555 -1.15093 1.76976
rclavicle 1.4064e-014 8.90555e-014
rhumerus -27.7917 -10.3102 -74.1239
rradius 21.6541
rwrist 14.4515
rhand -9.91342 -27.3564
rfingers 7.12502
rthumb 16.067 -56.7103
lclavicle 1.4064e-014 8.90555e-014
lhumerus -21.2741 12.0666 78.5183
lradius 21.272
lwrist -31.4208
lhand -6.84318 26.7475
lfingers 7.12502
lthumb 19.0216 55.8373
rfemur -14.769 2.67524 29.2239
rtibia 20.1563
rfoot -6.90065 -10.1938
rtoes 18.5104
lfemur -18.8837 2.22455 -9.36284
ltibia 61.8795
lfoot 2.44087 0.632287
ltoes -14.3129
148
root 9.18697 17.9996 3.96898 118.216 -83.3939 -112.874
lowerback 0.422086 -1.2024 4.55228
upperback -1.55188 -1.63782 6.02873
thorax -1.78372 -0.918261 3.70664
lowerneck -16.1999 -2.11384 -3.14485
upperneck 13.1506 -2.94701 4.72594
head 6.79147 -1.17364 1.73105
rclavicle 1.24737e-014 -8.11041e-014
rhumerus -26.848 -8.69421 -74.8727
rradius 23.0232
rwrist 13.2126
rhand -10.139 -27.6055
rfingers 7.12502
rthumb 15.8498 -56.9768
lclavicle 1.24737e-014 -8.11041e-014
lhumerus -21.6559 11.5347 77.2011
lradius 22.25
lwrist -29.2908
lhand -5.54359 26.7993
lfingers 7.12502
lthumb 20.2711 55.7615
rfemur -13.793 2.79333 29.5547
rtibia 19.5862
rfoot -7.0598 -9.99393
rtoes 18.4296
lfemur -19.783 2.80384 -9.11435
ltibia 62.0537
lfoot 1.4022 0.875403
ltoes -14.3651
149
root 9.04629 18.0128 3.93571 119.732 -83.1369 -114.484
lowerback 0.372556 -1.0352 4.69105
upperback -1.55849 -1.41585 5.956
thorax -1.77459 -0.809004 3.54731
lowerneck -16.102 -2.14336 -3.13531
upperneck 13.244 -2.98312 4.6473
head 6.80498 -1.19842 1.70081
rclavicle 9.93923e-017 4.6118e-014
rhumerus -25.9831 -7.16193 -75.4882
rradius 24.4762
rwrist 12.0303
rhand -10.4046 -27.8393
rfingers 7.12502
rthumb 15.594 -57.2307
lclavicle 9.93923e-017 4.6118e-014
lhumerus -22.0557 10.8399 75.9213
lradius 23.348
lwrist -27.05
lhand -4.24741 26.7137
lfingers 7.12502
lthumb 21.5164 55.5386
rfemur -12.837 2.88384 29.8764
rtibia 19.0205
rfoot -7.21323 -9.76807
rtoes 18.3582
lfemur -20.6683 3.37563 -8.88246
ltibia 62.0988
lfoot 0.402554 1.08252
ltoes -14.2423
150
root 8.90668 18.0249 3.90402 121.264 -82.8709 -116.097
lowerback 0.321725 -0.856063 4.83864
upperback -1.56623 -1.178 5.87853
thorax -1.76493 -0.69197 3.37816
lowerneck -16.0147 -2.1797 -3.13358
upperneck 13.3317 -3.02905 4.58553
head 6.81927 -1.22676 1.6762
rclavicle -1.59525e-014 9.38264e-014
rhumerus -25.1658 -5.72354 -75.9825
rradius 25.9913
rwrist 10.8803
rhand -10.7282 -27.9871
rfingers 7.12502
rthumb 15.2823 -57.4025
lclavicle -1.59525e-014 9.38264e-014
lhumerus -22.456 10.0632 74.6657
lradius 24.5338
lwrist -24.8033
lhand -3.07163 26.3908
lfingers 7.12502
lthumb 22.6452 55.0823
rfemur -11.9113 2.95883 30.183
rtibia 18.4708
rfoot -7.3682 -9.52683
rtoes 18.3336
lfemur -21.5355 3.9352 -8.67206
ltibia 62.0082
lfoot -0.573534 1.27287
ltoes -13.9851
151
root 8.76806 18.0358 3.87376 122.782 -82.5978 -117.683
lowerback 0.279441 -0.668846 4.99201
upperback -1.58052 -0.928297 5.79918
thorax -1.76536 -0.569305 3.2043
lowerneck -15.9373 -2.22247 -3.15378
upperneck 13.4145 -3.0831 4.55242
head 6.83478 -1.25756 1.66356
rclavicle 1.33683e-014 -9.54166e-015
rhumerus -24.3847 -4.38771 -76.3591
rradius 27.5467
rwrist 9.76037
rhand -11.0974 -28.0477
rfingers 7.12502
rthumb 14.9267 -57.4898
lclavicle 1.33683e-014 -9.54166e-015
lhumerus -22.8521 9.2765 73.424
lradius 25.7697
lwrist -22.6296
lhand -2.06333 25.8292
lfingers 7.12502
lthumb 23.6127 54.3993
rfemur -11.0174 3.02104 30.4756
rtibia 17.9432
rfoot -7.53137 -9.27505
rtoes 18.3372
lfemur -22.3888 4.47859 -8.4818
ltibia 61.7921
lfoot -1.53118 1.44734
ltoes -13.7392
152
root 8.63047 18.0454 3.84492 124.23 -82.3228 -119.184
lowerback 0.24432 -0.474054 5.14869
upperback -1.60545 -0.667165 5.7163
thorax -1.77908 -0.441281 3.02536
lowerneck -15.8579 -2.27306 -3.18885
upperneck 13.4935 -3.14902 4.54595
head 6.84988 -1.29263 1.66072
rclavicle -1.00635e-014 4.53229e-014
rhumerus -23.6416 -3.17077 -76.6244
rradius 29.1353
rwrist 8.66633
rhand -11.4741 -28.0303
rfingers 7.12502
rthumb 14.5637 -57.4991
lclavicle -1.00635e-014 4.53229e-014
lhumerus -23.2554 8.47811 72.1998
lradius 27.0745
lwrist -20.5219
lhand -1.19928 25.1211
lfingers 7.12502
lthumb 24.4412 53.582
rfemur -10.1577 3.07639 30.7529
rtibia 17.4402
rfoot -7.68403 -9.02613
rtoes 18.3024
lfemur -23.2282 4.99465 -8.31242
ltibia 61.4521
lfoot -2.46688 1.61266
ltoes -13.6217
